<?xml version="1.0" encoding="utf-8"?>
<!-- Generator: Adobe Illustrator 25.4.1, SVG Export Plug-In . SVG Version: 6.00 Build 0)  -->
<svg version="1.1" id="Ebene_1" xmlns="http://www.w3.org/2000/svg" xmlns:xlink="http://www.w3.org/1999/xlink" x="0px" y="0px"
	 viewBox="0 0 144 144" style="enable-background:new 0 0 144 144;" xml:space="preserve">
<style type="text/css">
	.st0{fill:#FF00FF;}
</style>
<path class="st0" d="M82.8,61c14.4,3,34.2,7.2,34.2,26.9c0,17.5-12.9,29.1-36.3,29.1H44.8L56,97.8h25.7c7.7,0,12.4-3.3,12.4-7.4
	c0-5-5.6-6.9-14.9-8.9c-14.4-2.9-34.5-6.5-34.5-27.2C44.8,39.7,57.2,27,79.5,27H117l-11.3,19.2H78.1c-7.4,0-10.3,3-10.3,6.8
	C67.7,57.6,73.1,59.1,82.8,61L82.8,61z M128,0H72C32.7,0,0.8,31.4,0,70.5C-0.8,110.9,33.1,144,73.5,144h70.4c0,0,0.1,0,0.1-0.1V16
	C144,7.2,136.8,0,128,0L128,0z"/>
</svg>
