<?xml version="1.0" encoding="utf-8"?>
<!-- Generator: Adobe Illustrator 25.4.1, SVG Export Plug-In . SVG Version: 6.00 Build 0)  -->
<svg version="1.1" id="Ebene_1" xmlns="http://www.w3.org/2000/svg" xmlns:xlink="http://www.w3.org/1999/xlink" x="0px" y="0px"
	 viewBox="0 0 372 72" style="enable-background:new 0 0 372 72;" xml:space="preserve">
<style type="text/css">
	.st0{fill:#A1A1AA;}
</style>
<g>
	<path class="st0" d="M98,43.9c1.2,0,2.2-0.2,3-0.6c0.8-0.4,1.5-0.9,2-1.5c0.5-0.5,0.8-1,1-1.4c0.3-0.7,0.5-1.5,0.6-2.4
		c0.1-0.9,0.1-1.7,0.1-2.4l1.9,0.5c-1.9,0.3-3.5,0.6-4.7,0.8c-1.2,0.2-2.2,0.4-2.9,0.6c-0.7,0.2-1.4,0.4-1.9,0.6
		c-0.6,0.3-1.2,0.5-1.6,0.8c-0.4,0.3-0.7,0.6-0.9,1c-0.2,0.4-0.3,0.7-0.3,1.2c0,0.6,0.1,1.1,0.4,1.5c0.3,0.4,0.7,0.7,1.3,1
		S97.3,43.9,98,43.9 M96.6,49c-1.9,0-3.4-0.4-4.7-1.1c-1.3-0.7-2.3-1.7-2.9-2.9c-0.7-1.2-1-2.5-1-4c0-1.2,0.2-2.3,0.6-3.3
		c0.4-1,1-1.9,1.8-2.6c0.8-0.8,1.9-1.4,3.3-1.9c1-0.4,2.1-0.7,3.4-0.9c1.3-0.3,2.8-0.5,4.5-0.8c1.7-0.3,3.5-0.5,5.5-0.8l-2.4,1.3
		c0-1.5-0.4-2.7-1.1-3.4s-2-1.1-3.7-1.1c-1,0-2,0.2-3,0.7c-1,0.5-1.8,1.3-2.2,2.5l-5.9-1.9c0.7-2.1,1.9-3.9,3.7-5.2
		c1.8-1.3,4.3-2,7.4-2c2.3,0,4.3,0.4,6.1,1.1c1.8,0.7,3.1,1.9,4,3.6c0.5,1,0.8,1.9,0.9,2.9c0.1,1,0.1,2,0.1,3.2v15.8h-5.7V43
		l0.8,1.1c-1.3,1.7-2.6,3-4.1,3.8C100.7,48.6,98.9,49,96.6,49"/>
	<rect x="117.9" y="13" class="st0" width="6.5" height="35.3"/>
	<path class="st0" d="M143.3,43.2c1.4,0,2.6-0.4,3.5-1.1c0.9-0.7,1.6-1.6,2-2.8c0.4-1.2,0.6-2.5,0.6-4c0-1.4-0.2-2.8-0.7-3.9
		c-0.4-1.2-1.1-2.2-2.1-2.9c-0.9-0.7-2.1-1.1-3.6-1.1c-1.4,0-2.5,0.3-3.3,1c-0.8,0.7-1.4,1.6-1.8,2.8c-0.4,1.2-0.6,2.6-0.6,4.1
		c0,1.6,0.2,2.9,0.6,4.1c0.4,1.2,1,2.1,1.9,2.8C140.7,42.9,141.8,43.2,143.3,43.2 M131.6,59.8V22.4h5.8v17.8h0.8v19.7H131.6z
		 M144.3,49c-2.6,0-4.7-0.6-6.5-1.8s-3-2.8-3.9-4.9c-0.9-2.1-1.3-4.4-1.3-7c0-2.6,0.4-4.9,1.3-7c0.9-2.1,2.1-3.7,3.8-4.9
		c1.7-1.2,3.8-1.8,6.2-1.8c2.5,0,4.6,0.6,6.5,1.8c1.8,1.2,3.3,2.8,4.3,4.9c1,2,1.5,4.4,1.5,7c0,2.6-0.5,4.9-1.5,7
		c-1,2.1-2.4,3.7-4.2,4.9C148.8,48.4,146.7,49,144.3,49"/>
	<path class="st0" d="M161.5,48.3V13.7h5.8v17.8h0.8v16.8H161.5z M179.2,48.3V36c0-0.6,0-1.3-0.1-2.3c-0.1-0.9-0.3-1.9-0.6-2.8
		c-0.3-0.9-0.9-1.7-1.7-2.3c-0.8-0.6-1.8-0.9-3.2-0.9c-0.6,0-1.2,0.1-1.8,0.3c-0.6,0.2-1.2,0.5-1.8,1c-0.6,0.5-1,1.2-1.4,2.2
		c-0.4,1-0.5,2.3-0.5,3.9l-3.7-1.8c0-2,0.4-4,1.2-5.8c0.8-1.8,2.1-3.2,3.7-4.3c1.7-1.1,3.8-1.7,6.3-1.7c2,0,3.7,0.3,5,1
		s2.3,1.6,3,2.6c0.7,1.1,1.2,2.2,1.5,3.3c0.3,1.1,0.5,2.2,0.6,3.1c0.1,0.9,0.1,1.6,0.1,2.1v14.5H179.2z"/>
	<path class="st0" d="M200.7,43.9c1.2,0,2.2-0.2,3-0.6c0.8-0.4,1.5-0.9,2-1.5c0.5-0.5,0.8-1,1-1.4c0.3-0.7,0.5-1.5,0.6-2.4
		c0.1-0.9,0.1-1.7,0.1-2.4l1.9,0.5c-1.9,0.3-3.5,0.6-4.7,0.8c-1.2,0.2-2.2,0.4-2.9,0.6c-0.7,0.2-1.4,0.4-1.9,0.6
		c-0.6,0.3-1.2,0.5-1.6,0.8c-0.4,0.3-0.7,0.6-0.9,1c-0.2,0.4-0.3,0.7-0.3,1.2c0,0.6,0.1,1.1,0.4,1.5c0.3,0.4,0.7,0.7,1.3,1
		C199.3,43.8,199.9,43.9,200.7,43.9 M199.3,49c-1.9,0-3.4-0.4-4.7-1.1c-1.3-0.7-2.3-1.7-2.9-2.9c-0.7-1.2-1-2.5-1-4
		c0-1.2,0.2-2.3,0.6-3.3c0.4-1,1-1.9,1.8-2.6c0.8-0.8,1.9-1.4,3.3-1.9c1-0.4,2.1-0.7,3.4-0.9s2.8-0.5,4.5-0.8
		c1.7-0.3,3.5-0.5,5.5-0.8l-2.4,1.3c0-1.5-0.4-2.7-1.1-3.4c-0.7-0.7-2-1.1-3.7-1.1c-1,0-2,0.2-3,0.7c-1,0.5-1.8,1.3-2.2,2.5
		l-5.9-1.9c0.7-2.1,1.9-3.9,3.7-5.2c1.8-1.3,4.3-2,7.4-2c2.3,0,4.3,0.4,6.1,1.1c1.8,0.7,3.1,1.9,4,3.6c0.5,1,0.8,1.9,0.9,2.9
		c0.1,1,0.1,2,0.1,3.2v15.8h-5.7V43l0.8,1.1c-1.3,1.7-2.6,3-4.1,3.8C203.4,48.6,201.5,49,199.3,49"/>
	<path class="st0" d="M238,49c-3,0-5.5-0.6-7.4-1.9c-1.9-1.3-3.1-3-3.6-5.3l2.8-0.5c0.4,1.5,1.3,2.8,2.8,3.7
		c1.5,0.9,3.3,1.4,5.5,1.4c2.1,0,3.8-0.5,5.1-1.4c1.3-0.9,1.9-2.2,1.9-3.7c0-0.9-0.2-1.6-0.6-2.1c-0.4-0.6-1.2-1.1-2.3-1.5
		c-1.2-0.5-2.9-1-5.1-1.6c-2.4-0.6-4.3-1.3-5.6-1.9c-1.3-0.6-2.3-1.4-2.9-2.2c-0.5-0.8-0.8-1.8-0.8-3c0-1.4,0.4-2.7,1.2-3.7
		c0.8-1.1,2-1.9,3.4-2.5c1.5-0.6,3.2-0.9,5.1-0.9s3.6,0.3,5.2,1c1.5,0.6,2.8,1.5,3.7,2.6c0.9,1.1,1.5,2.4,1.6,3.9l-2.8,0.5
		c-0.3-1.7-1.1-3-2.5-3.9c-1.4-1-3.2-1.5-5.3-1.5c-2,0-3.6,0.4-4.9,1.2c-1.3,0.8-1.9,1.9-1.9,3.2c0,0.8,0.2,1.4,0.6,2
		c0.4,0.5,1.2,1,2.4,1.5c1.1,0.4,2.7,0.9,4.8,1.4c2.5,0.6,4.4,1.3,5.8,2c1.4,0.7,2.4,1.5,3,2.4c0.6,0.9,0.9,2,0.9,3.3
		c0,2.4-0.9,4.3-2.7,5.7C243.6,48.3,241.1,49,238,49"/>
	<path class="st0" d="M253.4,48.3V13.7h2.5v20h0.3v14.6H253.4z M272.4,48.3V34.8c0-1.6-0.2-3.1-0.5-4.4c-0.3-1.3-0.8-2.4-1.5-3.3
		c-0.7-0.9-1.5-1.6-2.5-2c-1-0.5-2.2-0.7-3.5-0.7c-1.4,0-2.6,0.2-3.7,0.7c-1,0.5-1.9,1.2-2.5,2c-0.7,0.9-1.2,1.9-1.5,3.1
		c-0.3,1.2-0.5,2.5-0.5,3.9L254,34c0-2.8,0.5-5.1,1.4-6.9c1-1.8,2.2-3.2,3.9-4c1.6-0.9,3.4-1.3,5.4-1.3c1.4,0,2.7,0.2,3.8,0.6
		c1.1,0.4,2.1,1,3,1.8c0.8,0.8,1.5,1.6,2.1,2.7c0.5,1,0.9,2.2,1.2,3.4c0.3,1.2,0.4,2.5,0.4,3.9v14.2H272.4z"/>
	<path class="st0" d="M289,46.5c1.8,0,3.3-0.3,4.6-0.9c1.3-0.6,2.4-1.5,3.2-2.7c0.8-1.2,1.4-2.5,1.6-4.1c0.2-0.9,0.2-1.8,0.3-2.8
		c0-1,0-1.8,0-2.2l1.2,0.8c-1,0.1-2.3,0.3-3.7,0.4c-1.4,0.1-2.9,0.3-4.4,0.5s-2.9,0.5-4.1,0.8c-0.8,0.2-1.5,0.5-2.3,0.9
		c-0.8,0.4-1.4,0.9-1.9,1.6c-0.5,0.7-0.7,1.6-0.7,2.6c0,0.8,0.2,1.6,0.6,2.4c0.4,0.8,1.1,1.4,2,1.9C286.2,46.2,287.4,46.5,289,46.5
		 M288.8,49c-2,0-3.7-0.4-5-1.1c-1.3-0.7-2.3-1.6-3-2.8c-0.7-1.2-1-2.4-1-3.8c0-1.5,0.3-2.7,0.9-3.7c0.6-1,1.4-1.8,2.5-2.4
		c1-0.6,2.2-1.1,3.4-1.4c1.4-0.3,3-0.6,4.6-0.8c1.6-0.2,3.2-0.4,4.7-0.6c1.5-0.2,2.7-0.3,3.7-0.5l-1,0.6c0.1-2.8-0.5-4.9-1.6-6.2
		c-1.1-1.4-3.1-2.1-5.9-2.1c-2,0-3.6,0.4-4.9,1.3c-1.3,0.9-2.2,2.2-2.7,4.1l-2.8-0.8c0.6-2.4,1.8-4.2,3.6-5.4s4.1-1.9,6.9-1.9
		c2.4,0,4.4,0.5,6,1.4c1.6,0.9,2.8,2.2,3.4,3.9c0.3,0.7,0.5,1.5,0.6,2.4c0.1,0.9,0.1,1.8,0.1,2.8v16.2H299v-6.8l0.9,0.2
		c-0.8,2.3-2.2,4.1-4.1,5.4S291.5,49,288.8,49"/>
	<path class="st0" d="M307.7,48.3V22.4h2.5v6.2l-0.6-0.8c0.3-0.7,0.6-1.4,1.1-2c0.4-0.6,0.9-1.2,1.4-1.6c0.7-0.6,1.5-1.1,2.4-1.4
		c0.9-0.3,1.9-0.5,2.8-0.6c0.9-0.1,1.8,0,2.6,0.2V25c-1-0.2-2.1-0.3-3.3-0.1c-1.2,0.1-2.2,0.6-3.2,1.5c-0.9,0.8-1.5,1.7-1.9,2.7
		c-0.4,1-0.7,2.1-0.8,3.2c-0.1,1.1-0.2,2.2-0.2,3.2v12.8H307.7z"/>
	<path class="st0" d="M324.4,33.6h20.5v2.5h-20.5V33.6z M334.6,49c-2.5,0-4.6-0.6-6.4-1.7c-1.8-1.1-3.2-2.7-4.2-4.7
		c-1-2-1.5-4.5-1.5-7.2c0-2.8,0.5-5.3,1.5-7.3c1-2.1,2.4-3.6,4.2-4.8c1.8-1.1,4-1.7,6.4-1.7c2.5,0,4.7,0.6,6.4,1.7
		c1.8,1.1,3.2,2.8,4.1,4.9c0.9,2.2,1.4,4.8,1.3,7.8h-2.9v-1c-0.1-3.6-0.9-6.3-2.4-8.1s-3.7-2.8-6.5-2.8c-2.9,0-5.2,1-6.8,2.9
		c-1.6,1.9-2.4,4.6-2.4,8.2c0,3.5,0.8,6.2,2.4,8.1c1.6,1.9,3.8,2.9,6.7,2.9c2,0,3.7-0.5,5.2-1.4c1.5-0.9,2.7-2.3,3.6-4l2.5,1.1
		c-1,2.2-2.5,4-4.5,5.2C339.4,48.4,337.1,49,334.6,49"/>
	<path class="st0" d="M361.3,49c-3,0-5.5-0.6-7.4-1.9c-1.9-1.3-3.1-3-3.6-5.3l2.8-0.5c0.4,1.5,1.3,2.8,2.8,3.7
		c1.5,0.9,3.3,1.4,5.5,1.4c2.1,0,3.8-0.5,5.1-1.4c1.3-0.9,1.9-2.2,1.9-3.7c0-0.9-0.2-1.6-0.6-2.1c-0.4-0.6-1.2-1.1-2.3-1.5
		c-1.2-0.5-2.9-1-5.1-1.6c-2.4-0.6-4.3-1.3-5.6-1.9c-1.3-0.6-2.3-1.4-2.9-2.2c-0.5-0.8-0.8-1.8-0.8-3c0-1.4,0.4-2.7,1.2-3.7
		c0.8-1.1,2-1.9,3.4-2.5c1.5-0.6,3.2-0.9,5.1-0.9c1.9,0,3.6,0.3,5.2,1c1.5,0.6,2.8,1.5,3.7,2.6c0.9,1.1,1.5,2.4,1.6,3.9l-2.8,0.5
		c-0.3-1.7-1.1-3-2.5-3.9c-1.4-1-3.2-1.5-5.3-1.5c-2,0-3.6,0.4-4.9,1.2c-1.3,0.8-1.9,1.9-1.9,3.2c0,0.8,0.2,1.4,0.6,2
		c0.4,0.5,1.2,1,2.4,1.5c1.1,0.4,2.7,0.9,4.8,1.4c2.5,0.6,4.4,1.3,5.8,2c1.4,0.7,2.4,1.5,3,2.4c0.6,0.9,0.9,2,0.9,3.3
		c0,2.4-0.9,4.3-2.7,5.7C366.9,48.3,364.4,49,361.3,49"/>
	<path class="st0" d="M41.4,30.5c7.2,1.5,17.1,3.6,17.1,13.5c0,8.8-6.5,14.6-18.2,14.6h-18l5.6-9.6h12.9c3.8,0,6.2-1.6,6.2-3.7
		c0-2.5-2.8-3.5-7.5-4.4c-7.2-1.4-17.2-3.3-17.2-13.6c0-7.3,6.2-13.7,17.4-13.7h18.7l-5.6,9.6H39c-3.7,0-5.2,1.5-5.2,3.4
		C33.9,28.8,36.5,29.6,41.4,30.5L41.4,30.5z M64,0H36C16.4,0,0.4,15.7,0,35.3C-0.4,55.5,16.5,72,36.7,72H72c0,0,0,0,0,0V8
		C72,3.6,68.4,0,64,0L64,0z"/>
</g>
</svg>
